<?xml version="1.0" encoding="utf-8"?>
<!-- Generator: Adobe Illustrator 28.1.0, SVG Export Plug-In . SVG Version: 6.00 Build 0)  -->
<svg version="1.1" id="Layer_1" xmlns="http://www.w3.org/2000/svg" xmlns:xlink="http://www.w3.org/1999/xlink" x="0px" y="0px"
	 viewBox="0 0 1000 1000" style="enable-background:new 0 0 1000 1000;" xml:space="preserve">
<style type="text/css">
	.st0{fill:#A1581E;}
	.st1{clip-path:url(#SVGID_00000178174808710029707190000002299168352066138517_);}
	.st2{fill:#F4EEE4;}
	.st3{clip-path:url(#SVGID_00000129190065888238672440000006428814626338246079_);}
	.st4{clip-path:url(#SVGID_00000026154117692670731940000014429027669613035929_);}
	.st5{clip-path:url(#SVGID_00000079449834316300545170000013807239892430870704_);}
	.st6{clip-path:url(#SVGID_00000029018826177884541900000008003496916222997901_);}
	.st7{clip-path:url(#SVGID_00000029018826177884541900000008003496916222997901_);fill:#FFFFFF;}
</style>
<circle class="st0" cx="500" cy="500" r="500"/>
<g>
	<g>
		<defs>
			<rect id="SVGID_1_" x="404.61" y="365.05" width="182.56" height="392.01"/>
		</defs>
		<clipPath id="SVGID_00000182486894770670094010000000890631511112081574_">
			<use xlink:href="#SVGID_1_"  style="overflow:visible;"/>
		</clipPath>
		<g style="clip-path:url(#SVGID_00000182486894770670094010000000890631511112081574_);">
			<path class="st2" d="M404.61,365.05h182.56v392.23H404.61V365.05z"/>
		</g>
	</g>
	<g>
		<defs>
			<rect id="SVGID_00000178183388612119587530000015343134773010338988_" x="333.02" y="321.45" width="334" height="484.07"/>
		</defs>
		<clipPath id="SVGID_00000137128608571811637040000002512863341096562574_">
			<use xlink:href="#SVGID_00000178183388612119587530000015343134773010338988_"  style="overflow:visible;"/>
		</clipPath>
		<g style="clip-path:url(#SVGID_00000137128608571811637040000002512863341096562574_);">
			<path class="st2" d="M579.87,322.34H426.94c-35.87,0-92.87,28.39-93.36,62.13l2.7,18.91c0.02,0.07,0.02,0.13,0,0.2
				c-0.02,0.13-0.02,0.26,0,0.38l26.98,187.75c0.02,0.29,0.02,0.6,0,0.9c-0.02,4.93,0.53,9.8,1.65,14.61c1.12,4.8,2.79,9.41,5,13.83
				c2.2,4.41,4.89,8.51,8.06,12.29s6.73,7.15,10.69,10.1c0.81,0.6,1.44,1.36,1.89,2.26s0.68,1.86,0.68,2.87v93.44
				c0,35.03,32.79,63.51,73.06,63.51h74.19c40.27,0,73.06-28.48,73.06-63.51v-90.84c0-1.08,0.26-2.1,0.77-3.05
				c0.51-0.95,1.22-1.72,2.12-2.32c2.21-1.43,4.32-3,6.34-4.7c2.01-1.7,3.91-3.51,5.7-5.44c1.79-1.93,3.45-3.97,4.98-6.11
				c1.53-2.14,2.93-4.37,4.19-6.68c1.26-2.32,2.37-4.7,3.33-7.15c0.97-2.45,1.76-4.95,2.41-7.5c0.65-2.56,1.14-5.14,1.46-7.75
				c0.32-2.61,0.49-5.23,0.49-7.87c-0.02-0.23-0.02-0.45,0-0.68l22.48-210.15C665.46,347.25,614.36,322.34,579.87,322.34z
				 M426.49,499.52c0,0.85-0.17,1.67-0.49,2.46c-0.32,0.78-0.79,1.48-1.4,2.08c-0.6,0.6-1.3,1.06-2.08,1.39
				c-0.78,0.33-1.61,0.49-2.46,0.49c-0.85,0-1.67-0.16-2.46-0.49c-0.78-0.32-1.48-0.78-2.08-1.39c-0.6-0.6-1.07-1.3-1.4-2.08
				c-0.32-0.79-0.49-1.61-0.49-2.46v-65.83c0-0.84,0.17-1.67,0.49-2.45c0.32-0.79,0.79-1.49,1.4-2.09c0.6-0.6,1.3-1.06,2.08-1.39
				c0.78-0.32,1.61-0.49,2.46-0.49c0.85,0,1.67,0.17,2.46,0.49c0.78,0.32,1.48,0.78,2.08,1.39c0.6,0.6,1.07,1.3,1.4,2.09
				c0.32,0.78,0.49,1.61,0.49,2.45V499.52z M484.3,731.7c-0.59,0.94-1.37,1.68-2.34,2.22c-0.97,0.54-2.01,0.81-3.12,0.8
				c-1.22,0-2.36-0.32-3.4-0.96l-12.85-8.03c-0.72-0.45-1.33-1.03-1.83-1.72c-0.49-0.69-0.84-1.46-1.03-2.29
				c-0.2-0.83-0.22-1.67-0.08-2.5c0.14-0.84,0.44-1.62,0.89-2.35s1.03-1.33,1.71-1.83c0.69-0.49,1.46-0.84,2.29-1.03
				c0.84-0.19,1.67-0.22,2.51-0.08c0.84,0.14,1.62,0.43,2.35,0.88l12.84,8.02c0.73,0.45,1.34,1.03,1.84,1.72
				c0.49,0.69,0.84,1.46,1.03,2.29c0.19,0.83,0.22,1.67,0.08,2.51C485.04,730.19,484.75,730.97,484.3,731.7z M537.51,723.83
				l-12.84,8.02c-1.05,0.64-2.18,0.97-3.4,0.97c-0.69,0-1.36-0.11-2.01-0.32c-0.65-0.22-1.25-0.54-1.8-0.94
				c-0.56-0.41-1.03-0.9-1.43-1.46c-0.39-0.56-0.69-1.17-0.89-1.83c-0.2-0.66-0.29-1.33-0.28-2.02c0.02-0.69,0.14-1.35,0.38-2
				c0.23-0.65,0.55-1.24,0.97-1.79c0.42-0.54,0.92-1,1.49-1.39l12.84-8.03c0.72-0.42,1.49-0.69,2.32-0.81
				c0.83-0.12,1.64-0.08,2.46,0.11c0.81,0.2,1.55,0.54,2.23,1.03c0.68,0.49,1.24,1.09,1.68,1.8c0.44,0.71,0.73,1.47,0.88,2.29
				c0.14,0.82,0.13,1.64-0.05,2.46c-0.17,0.82-0.5,1.58-0.97,2.26c-0.48,0.69-1.06,1.27-1.75,1.73L537.51,723.83z M580.64,494.7
				c0,0.85-0.16,1.67-0.48,2.46c-0.33,0.78-0.79,1.48-1.4,2.08c-0.6,0.6-1.3,1.07-2.08,1.4c-0.79,0.32-1.61,0.49-2.46,0.49
				c-0.85,0-1.67-0.17-2.46-0.49c-0.79-0.32-1.49-0.79-2.09-1.4c-0.6-0.6-1.06-1.3-1.39-2.08c-0.32-0.78-0.49-1.61-0.49-2.46v-65.82
				c0-0.85,0.17-1.67,0.49-2.46c0.32-0.78,0.79-1.48,1.39-2.08c0.6-0.6,1.3-1.07,2.09-1.4c0.78-0.32,1.61-0.49,2.46-0.49
				c0.85,0,1.67,0.17,2.46,0.49c0.78,0.32,1.48,0.79,2.08,1.4c0.6,0.6,1.06,1.3,1.4,2.08c0.32,0.78,0.48,1.61,0.48,2.46V494.7z"/>
		</g>
	</g>
	<g>
		<defs>
			<rect id="SVGID_00000052086292643356262820000009105044515102885305_" x="205.6" y="194.48" width="121.63" height="202.27"/>
		</defs>
		<clipPath id="SVGID_00000169534800029017954950000014612139269487752833_">
			<use xlink:href="#SVGID_00000052086292643356262820000009105044515102885305_"  style="overflow:visible;"/>
		</clipPath>
		<g style="clip-path:url(#SVGID_00000169534800029017954950000014612139269487752833_);">
			<path class="st2" d="M260.45,301.46v-88.59c0-3.21-6.16-11.95-12.33-18.49c-23.35,1.61-41.94,24.72-41.94,52.88v95.72
				c0,29.22,20.01,52.99,44.57,52.99h71.49l-1.48-10.15c-0.02-0.31-0.02-0.62,0-0.93c0.09-7.44,1.86-14.46,5.3-21.06
				C289,359.46,260.45,333.16,260.45,301.46z"/>
		</g>
	</g>
	<path class="st2" d="M309.08,408.81c-7.71,0.07-15.34,0.85-22.9,2.35s-14.9,3.7-22.05,6.58c-7.14,2.88-13.95,6.4-20.44,10.57
		c-6.49,4.16-12.52,8.89-18.11,14.19c-3.31,3.01-6.45,6.18-9.4,9.53c-2.96,3.35-5.73,6.86-8.31,10.51s-4.95,7.44-7.1,11.35
		c-2.16,3.91-4.1,7.93-5.83,12.06c-1.72,4.13-3.21,8.33-4.46,12.62c-1.26,4.29-2.29,8.64-3.06,13.04c-0.78,4.4-1.33,8.83-1.62,13.29
		c-0.3,4.46-0.35,8.93-0.16,13.39c4.95,0.67,9.91,1,14.9,1c7.71-0.07,15.34-0.84,22.9-2.35c7.56-1.5,14.91-3.69,22.05-6.57
		c7.15-2.88,13.96-6.41,20.45-10.57c6.48-4.16,12.52-8.9,18.11-14.2c3.31-3,6.45-6.18,9.4-9.53c2.96-3.35,5.73-6.85,8.3-10.5
		c2.58-3.66,4.95-7.44,7.1-11.35c2.16-3.91,4.1-7.93,5.82-12.06s3.21-8.33,4.46-12.62s2.28-8.64,3.06-13.04
		c0.78-4.4,1.32-8.83,1.61-13.29c0.29-4.46,0.34-8.92,0.14-13.39C319.01,409.15,314.05,408.82,309.08,408.81z"/>
	<g>
		<defs>
			<rect id="SVGID_00000071534585868985539810000001165970865185792164_" x="674.74" y="194.48" width="121.63" height="202.27"/>
		</defs>
		<clipPath id="SVGID_00000122706654676218823000000009513562853498322058_">
			<use xlink:href="#SVGID_00000071534585868985539810000001165970865185792164_"  style="overflow:visible;"/>
		</clipPath>
		<g style="clip-path:url(#SVGID_00000122706654676218823000000009513562853498322058_);">
			<path class="st2" d="M678.6,382.8l-1.42,13.17h74.03c24.6,0,44.61-23.76,44.61-52.99v-95.72c0-28.16-18.59-51.37-41.98-52.88
				c-6.16,6.42-12.33,15.15-12.33,18.49v88.59c0,32.11-28.9,58.38-66.35,62.42c2.3,5.85,3.45,11.92,3.47,18.21
				C678.63,382.33,678.62,382.56,678.6,382.8z"/>
		</g>
	</g>
	<path class="st2" d="M774.36,442.49c-5.6-5.29-11.64-10.02-18.12-14.19c-6.49-4.16-13.3-7.68-20.44-10.57
		c-7.15-2.88-14.49-5.07-22.05-6.58c-7.56-1.5-15.19-2.29-22.89-2.35c-4.99,0.01-9.96,0.34-14.9,1c-0.07,2.07-0.08,4.15-0.05,6.22
		c0.04,2.07,0.13,4.15,0.26,6.21c0.14,2.07,0.33,4.14,0.57,6.2c0.25,2.06,0.54,4.12,0.88,6.16c0.35,2.04,0.74,4.08,1.18,6.11
		s0.94,4.04,1.49,6.04c0.55,2.01,1.15,3.99,1.79,5.97c0.64,1.98,1.33,3.93,2.07,5.87c0.75,1.94,1.53,3.85,2.37,5.75
		s1.72,3.78,2.65,5.63c0.94,1.86,1.91,3.69,2.93,5.49c1.02,1.81,2.08,3.59,3.19,5.35c1.11,1.75,2.26,3.48,3.45,5.17
		c1.2,1.7,2.44,3.36,3.71,5c1.27,1.64,2.59,3.24,3.95,4.81c1.35,1.57,2.75,3.11,4.18,4.61c1.43,1.5,2.9,2.96,4.41,4.4
		c1.5,1.43,3.04,2.82,4.62,4.17c1.58,1.35,3.18,2.66,4.82,3.94c1.64,1.27,3.31,2.5,5.02,3.7c1.7,1.19,3.42,2.34,5.18,3.44
		c1.76,1.11,3.54,2.16,5.35,3.18c1.81,1.01,3.64,1.98,5.5,2.91c1.86,0.92,3.74,1.8,5.64,2.63c1.9,0.83,3.82,1.61,5.76,2.35
		c1.94,0.74,3.9,1.43,5.87,2.06c1.98,0.64,3.96,1.23,5.97,1.77s4.02,1.03,6.05,1.47c2.03,0.44,4.06,0.83,6.12,1.17
		c2.04,0.34,4.1,0.63,6.16,0.87c2.06,0.24,4.13,0.43,6.2,0.56c2.07,0.14,4.15,0.22,6.22,0.26c4.98,0.01,9.95-0.32,14.9-1
		c0.19-4.47,0.14-8.94-0.17-13.39c-0.29-4.46-0.84-8.89-1.62-13.3c-0.79-4.4-1.81-8.75-3.08-13.04c-1.26-4.28-2.75-8.49-4.48-12.62
		c-1.72-4.13-3.67-8.14-5.83-12.06c-2.16-3.91-4.53-7.7-7.12-11.35c-2.58-3.65-5.35-7.15-8.31-10.5S777.68,445.49,774.36,442.49z"/>
	<g>
		<g>
			<path class="st0" d="M609.92,648.84c-14.8,7.7-39.58,20.59-66.63,32.88c-32.31,14.68-58.14,24.06-75.24,30.27
				c-25.13,9.13-50.92,17.52-76.91,25.05c0,0.07,0.02,0.13,0.02,0.2c-0.05,2.03-0.03,4.06,0.11,6.08
				c26.65-7.69,53.09-16.27,78.86-25.62c17.18-6.24,43.15-15.67,75.68-30.45c26.97-12.25,51.64-25.08,66.55-32.83v-3.61
				c0-1.39,0.37-2.67,1.01-3.76C612.28,647.61,611.14,648.21,609.92,648.84z"/>
		</g>
		<g>
			<path class="st0" d="M381.98,561.83l5.26,7.05c0,0,0.01,0.01,0.01,0.01l0,0c0.19,0.25,0.45,0.42,0.75,0.49c0,0,0,0,0,0
				c0.03,0.01,0.07,0.02,0.1,0.02l0,0c0.07,0.01,0.14,0.02,0.21,0.02c0,0,0.01,0,0.01,0c0,0,0,0,0.01,0h32.24h7.6h35.74h8.52
				c0.09,0,0.17-0.01,0.26-0.03c0.03,0,0.05-0.01,0.08-0.02v0c0.13-0.03,0.26-0.09,0.37-0.16c0,0,0,0,0,0
				c0.02-0.01,0.03-0.02,0.05-0.03c0.03-0.02,0.06-0.04,0.09-0.06c0.03-0.03,0.06-0.05,0.09-0.08c0,0,0,0,0,0
				c0.05-0.05,0.11-0.11,0.15-0.17c0,0,0,0,0,0l5.26-7.05c0.45-0.6,0.33-1.46-0.28-1.91c-0.6-0.45-1.46-0.33-1.91,0.28l-4.06,5.44
				l-17.66-28.7l-8.61-13.99l-0.31-0.51l3.19-6.4c0.34-0.67,0.06-1.49-0.61-1.83c-0.67-0.34-1.49-0.06-1.83,0.61l-2.42,4.86
				l-3.01-4.96c-0.39-0.64-1.23-0.85-1.87-0.46c-0.64,0.39-0.85,1.23-0.46,1.87l3.47,5.73l-38.5,16.21
				c-0.28,0.12-0.51,0.32-0.66,0.59l-15.09,26.91l-4.01-5.37c-0.45-0.6-1.3-0.73-1.91-0.28
				C381.66,560.37,381.53,561.23,381.98,561.83z M422.83,566.7l21.67-41.43L470,566.7h-5.6c-2.22-1.84-14.22-12.34-17.61-26.78
				c-0.15-0.63-0.72-1.07-1.35-1.05c-0.64,0.01-1.19,0.47-1.31,1.1c-0.03,0.17-3.52,17.05-16.4,26.74H422.83z M390.66,566.7
				l14.75-26.3l36.02-15.17l-21.07,40.28l-3.97-5.31c-0.45-0.6-1.3-0.73-1.91-0.28c-0.6,0.45-0.73,1.3-0.28,1.91l3.64,4.87H390.66z"
				/>
		</g>
		<g>
			<g>
				<defs>
					<rect id="SVGID_00000168082788128794061240000014660390066107266708_" x="331.09" y="333.04" width="381.78" height="334"/>
				</defs>
				<clipPath id="SVGID_00000005232091921147213610000016506799101036456082_">
					<use xlink:href="#SVGID_00000168082788128794061240000014660390066107266708_"  style="overflow:visible;"/>
				</clipPath>
				<g style="clip-path:url(#SVGID_00000005232091921147213610000016506799101036456082_);">
					<path class="st0" d="M591.85,587.21c1.07-1.46,3.51-5.14,1.96-6.89c-2.59-2.93-3.97,2.94-4.9,4.28
						c-3.88,5.6-11.73,7.5-17.71,9.79c-8.14,3.12-17.23,0.65-25.56,3.07c-6.43,1.87-12.41,5.87-18.41,8.79
						c-6.92,3.36-13.94,6.5-21.04,9.41c-13.98,5.74-28.32,10.63-42.9,14.62c-3.3,0.9-6.66,1.65-9.96,2.58
						c-3.62,1.02-2.77,4.62,0.91,3.81c7.32-1.62,14.58-3.79,21.74-6.01c14.21-4.39,28.16-9.62,41.75-15.67
						c7.16-3.19,14.22-6.62,21.16-10.26c3.42-1.79,6.82-3.48,10.66-4.14c4.12-0.71,8.34-0.49,12.5-0.66
						c-12.29,8.79-25.73,15.71-40.2,20.16c-3.39,1.05-6.83,1.83-10.26,2.72c-1.27,0.33-2.82,0.81-2.44,2.53
						c0.43,1.93,2.34,1.51,3.73,1.19c7.35-1.65,14.56-3.92,21.53-6.76c6.84-2.77,13.47-6.09,19.79-9.9
						c6.43-3.88,12.24-9.17,19.17-12.14C579.92,594.9,587.38,593.25,591.85,587.21z"/>
					<path class="st0" d="M635.34,412.21c1.7-0.29,5.08-2.19,2.51-4.03c-1.3-0.93-3.88,0.4-5.51,0.14
						c-2.02-0.32-4.38-1.32-5.57-3.06l0.08-3.27c1.6,0.95,6.96,5.62,8.18,2.28c1.05-2.88-6.31-5.6-8.05-6.84l0.16-5.81
						c1.09,1,2.9,3.17,4.34,3.6c1.63,0.49,3.02-0.95,2.49-2.53c-0.44-1.33-2.71-2.64-3.71-3.54c-1.3-1.17-2.41-2.91-3.77-3.95
						c-1.61-1.96-3.02,0.16-3.66,1.52c-1.06,2.3-2.43,2.9-4.55,3.91c-1.53,0.72-2.6,2.87-0.38,3.77c1.64,0.66,4.09-0.88,5.3-1.84
						l-0.13,4.68c-1.52,1.03-2.16,2.67-4.05,3.38c-1.46,0.54-3.76-0.16-4.69,1.27c-1.08,1.64,0.41,2.84,1.92,3.04
						c2.29,0.29,4.84-0.7,6.67-2.01l-0.09,3.11c-1.55,1.16-3.91,1.47-5.77,1.74c-1.58,0.23-4.4-0.23-4.68,1.98
						c-0.53,4.23,8.57,1.32,10.33,0.68c-0.05,1.65-0.81,5.42,1.81,5.5c2.66,0.14,2.07-3.97,2.11-5.61
						C629.16,411.86,632.4,412.72,635.34,412.21z"/>
					<path class="st0" d="M366.02,388.88c2.95-1.53,5.95-2.98,8.95-4.4c13.2-6.29,26.58-12.22,40.01-17.99
						c-2.11,2.76-4.57,5.25-7.31,7.38c-1.3,1.02-2.68,1.96-4.11,2.81c-1.13,0.67-3.11,1.17-3.42,2.64
						c-2.54,5.82,10.45,3.76,12.7,3.6c-2.5,6.7-7.71,12.32-14.23,15.26c-1.31,0.59-3.38,1.21-2.68,3.13
						c0.66,1.83,3.9,1.99,5.47,1.97c3.99-0.08,8.15-1.49,11.95-2.59c-1.65,4.31-6.29,7.46-9.95,9.95c-2.07,1.43-4.26,2.6-6.45,3.83
						c-1.55,0.87-3.1,2.96-0.62,4.03c1.68,0.72,4.8-0.11,6.56-0.32c2.56-0.3,5.09-0.77,7.59-1.4c4.65-1.16,9.22-2.88,13.36-5.32
						v10.9c0,1.84-1.28,10.16,1.95,10.16c3.26,0,1.96-8.41,1.96-10.26v-11.03c4.82,2.51,10.24,3.9,15.66,4.17
						c2.05,0.11,15.74,0.02,12.68-4.4c-1.07-1.55-4.1-2.69-5.64-3.84c-1.97-1.48-3.82-3.09-5.56-4.83
						c-3.57-3.58-6.62-7.7-8.99-12.17c3.7,0.11,7.39-0.09,11.06-0.6c1.32-0.18,3.43-0.13,4.49-1.03c1-0.84,0.97-2.47-0.23-3.18
						c8.27-15.35,17.21-30,32.11-41.6c-1.38,5.77-1.33,11.85-3.2,17.5c-1,3.02-2.5,5.77-3.88,8.63c-0.48,0.98-1.09,1.95-0.36,2.96
						c0.82,1.14,2.2,1,3.1,0.1c1.8-1.83,2.99-5.63,3.95-7.99c1.12-2.77,1.87-5.62,2.34-8.57c0.87-5.47,0.88-11.77,3.7-16.7
						c3.48-2.26,6.3-2.74,10.2-1.26c3.92,1.48,7.76,3.26,11.56,5c7.6,3.48,15.11,7.24,22.36,11.39c2.99,1.7,5.66,3.57,7.51,6.52
						c1.94,3.08,3.39,6.39,5.49,9.38c3.73,5.32,8.89,11.44,14.48,14.9c3.46,2.76,7.09,5.3,10.79,7.74c1.89,1.24,3.81,2.46,5.72,3.67
						c1.22,0.77,2.83,2.35,4.34,1.52c4.03-2.18-4.15-6.03-5.41-6.83c-3.92-2.51-7.8-5.11-11.49-7.94c4.8-5.14,8.5-11.03,12.56-16.73
						c4.39-6.15,11.11-10.48,18.51-6.43c7.95,4.35,12.93,12.27,22.16,14.46c4.22,1,8.54,1.27,12.35,3.51
						c3.94,2.32,6.95,5.87,10.34,8.88c2.8,2.49,5.82,4.66,8.82,6.89c1.55,1.15,3.07,2.33,4.54,3.59c1.24,1.07,3.44,4.19,5.36,3.39
						c4.22-1.73-4.1-7.46-5.54-8.59c-2.99-2.34-6.15-4.46-9.06-6.9c-3.16-2.64-5.91-5.75-9.14-8.31c-3.5-2.79-7.28-4.41-11.65-5.28
						c-4.35-0.87-8.36-1.55-12.11-4.09c-3.66-2.46-6.73-5.66-10.21-8.34c-7.56-5.81-16.33-6.52-23.55,0.27
						c-3.05,2.87-5.13,6.44-7.5,9.85c-2.75,3.95-5.63,7.87-8.94,11.37c-6.27-5.19-11.69-11.2-15.51-18.42
						c-1.95-3.7-4-6.92-7.47-9.35c-3.6-2.53-7.65-4.5-11.53-6.53c-8.09-4.24-16.37-8.13-24.81-11.61
						c-3.48-1.44-6.95-2.57-10.69-1.34c-3.29,1.08-6.3,3.41-9.04,5.46c-7.24,5.39-13.6,11.87-19.08,19.03
						c-3.63-3.79-9.22-9.23-14.98-8.24c-2.69,0.47-5.34,1.95-7.85,2.96c-3.01,1.22-6.02,2.44-9.02,3.67
						c-1.27-1.77-2.43-3.64-3.39-5.6c-0.57-1.18-0.85-2.88-1.67-3.91c-0.51-0.66-1.25-1.03-2.09-0.81c-0.87,0.21-1.17,0.84-1.47,1.6
						c-0.78,1.95-0.87,4.38-1.55,6.42c-0.7,2.08-1.58,4.11-2.6,6.06c-15.85,6.13-31.43,13.54-46.75,20.89
						c-3.64,1.75-7.35,3.47-10.84,5.52c-4.12,2.41-7.01,6.58-11.2,8.73c-3.79,1.95-8.24,2.08-12.13,3.79
						c-1.81,0.79-8.64,5.61-4.69,7.59c2.11,1.06,3.02-1.87,4.32-2.89c1.36-1.06,3.08-1.59,4.71-2.05c4.64-1.31,9.14-2.02,12.93-5.24
						C358.69,393.94,361.72,391.12,366.02,388.88z M439.06,358.08c3.3-1.34,8.57-4.8,12.18-3.73c3.67,1.09,7.19,4.66,9.71,7.4
						c-5.02,7.01-9.25,14.46-13.33,22.04c-5-2.42-9.44-6.06-12.78-10.5c2.01,0.17,12.43,0.69,8.92-3.8
						c-1.27-1.63-3.48-2.98-4.98-4.4c-1.67-1.58-3.27-3.21-4.77-4.95C435.65,359.46,437.35,358.77,439.06,358.08z M421.6,363.57
						c0.32-0.33,0.49-0.69,0.54-1.04c1.33-2.52,2.43-5.16,3.25-7.89c1.11,2.01,2.4,4.46,4.06,6.09c2.56,3.27,5.48,6.19,8.32,8.76
						c-1.42,0.02-2.83-0.08-4.23-0.29c-1.1-0.17-2.71-0.87-3.78-0.24c-2.53,1.5,0.81,5.17,1.87,6.59
						c3.17,4.24,7.21,7.83,11.79,10.48c-3.51,0.32-7.06,0.33-10.58,0.04c-3.75-0.29-1.15,4.49-0.43,5.87
						c1.35,2.56,2.9,5.01,4.65,7.32c3.47,4.63,7.68,8.71,12.41,12.04c-7.9,1.03-15.88-0.87-22.6-5.08
						c-0.78-0.53-1.48-0.31-2.25,0.05c-2.8,1.3-5.21,3.28-8.13,4.47c-3.47,1.42-7.1,2.42-10.79,3.08
						c4.59-3.15,10.18-7.21,11.67-12.89c0.57-2.16,0.77-5.08-2.23-4.87c-1.5,0.1-3.31,1.01-4.79,1.42
						c-1.61,0.44-3.22,0.84-4.84,1.21c3.26-2.35,6.06-5.34,8.21-8.75c1.24-1.97,5.25-8.21,3.35-10.42
						c-1.09-1.27-3.89-0.54-5.29-0.43c-1.75,0.13-3.5,0.25-5.26,0.38C412.77,375.52,417.98,369.99,421.6,363.57z"/>
					<path class="st0" d="M591.05,560.52c1.73-0.01,3.27-2.43,4.03-3.76c1.79-3.15,2.22-7.12,1.05-10.57
						c-0.49-1.45-1.43-3.96-3.41-3.43c-1.92,0.51-1.36,2.32-0.76,3.6c1.64,3.54,1.02,8.14-2.13,10.67
						C588.42,558.17,589.24,560.53,591.05,560.52z"/>
					<path class="st0" d="M602.65,520.84c1.75-0.61,1.73-3.22-0.08-3.73c-8.67-2.48-17.63-3.92-26.64-4.29
						c-7.31-0.3-15.92,0.89-22.25-3.64c-1.13-0.81-2.27-2.75-3.69-2.9c-1.46-0.16-2.45,1.26-2.04,2.61
						c0.91,2.99,6.12,5.24,8.75,6.13c7.84,2.64,16.62,1.33,24.75,2.1c4.91,0.45,9.79,1.24,14.59,2.35
						C597.71,519.84,600.99,521.43,602.65,520.84z"/>
					<path class="st0" d="M634.92,470.09c0.33-1.3,0.69-2.61,1.09-3.91c0.93,1.38,1.6,3.7,2.74,4.82c1.03,1.01,2.75,1.21,3.37-0.43
						c0.9-2.4-3.26-7.43-4.76-9.13c-3.43-3.89-4.68,2.13-5.44,4.76c-0.37,1.28-1.42,3.42-0.41,4.65
						C632.51,472.07,634.53,471.61,634.92,470.09z"/>
					<path class="st0" d="M391.41,464.93c1.49-0.98,5.52-2.98,5.23-5.17c-0.41-3.11-3.36-1.01-4.55-0.07
						c-4.09,3.24-9.2,5.39-10.79,10.83c-0.6,2.04-0.63,4.63,0.66,6.44c1.2,1.69,3.92,1.43,3.75-1c-0.08-0.96-0.83-1.7-0.87-2.73
						c-0.05-1.09,0.37-2.19,0.88-3.14C386.97,467.79,389.28,466.34,391.41,464.93z"/>
					<path class="st0" d="M589.67,433.13c-2.63,0.78-1.15,3.84,1.12,3.75c1.51-0.05,2.9-0.59,4.46-0.5c1.33,0.08,2.9,0.93,4.19,0.83
						c2.71-0.2,2.17-3.11,0.2-3.95C596.66,432.01,592.71,432.23,589.67,433.13z"/>
					<path class="st0" d="M632.12,488.87c-3.9-1.61-7.32-4.27-9.89-7.61c-1.83-2.37-4.35-4.28-6.81-1.43
						c-1.54,1.79-5.16,10.06-2.87,11.89c3.42,2.74,4.68-7.5,5.75-9.21c2.41,3.17,5.06,5.91,8.48,8c1.3,0.79,3.79,2.6,5.35,1.97
						C633.7,491.84,633.7,489.52,632.12,488.87z"/>
					<path class="st0" d="M445.46,492.17c-1.54-0.21-3.07-0.48-4.59-0.82c-6.37-1.43-12.47-4-17.93-7.58
						c-2.2-1.45-3.86,1.63-2.15,3.27c2.15,2.07,5.94,3.5,8.65,4.68c5.78,2.51,12.22,4.34,18.54,4.65c1.09,0.05,2.25,0.15,2.83-1.04
						c0.51-1.06-0.05-2.17-1.03-2.66C448.68,492.12,446.69,492.34,445.46,492.17z"/>
					<path class="st0" d="M580.44,463.1c-0.14,1.61,0.8,3.76,2.8,2.58c1.33-0.79,1.27-3.1,1.5-4.46c0.76,0.99,1.31,2.71,2.61,3.07
						c1.13,0.32,2.32-0.44,2.47-1.63c0.31-2.36-3.49-5.73-5.08-7.09C581.35,452.68,580.57,461.51,580.44,463.1z"/>
					<path class="st0" d="M558.26,560.12c7.07-4.29,14.98-12.94,9.04-21.42c-2.76-3.94-7.59-5.91-12.02-7.26
						c-6.72-2.05-13.59-3.69-20.38-5.48c-13.57-3.57-27.17-7.04-40.8-10.41c-13.24-3.28-26.65-6.08-39.81-9.69
						c-6.49-1.78-12.7-4.5-19.23-6.12c-6.57-1.63-13.3-1.39-19.99-2.02c-6.86-0.66-13.55-2.41-20.15-4.31
						c-6.42-1.84-12.17-3.48-17.14-8.14c-4.72-4.43-9.46-8.32-15.01-11.68c0.24-1.7-0.42-3.48-0.14-5.26
						c0.29-1.85,0.96-3.63,1.82-5.27c1.75-3.35,4.36-6.29,7.45-8.45c7.07-4.96,15.81-6.95,24.15-8.59
						c19.03-3.73,38.13-7.39,57.34-10.14c11.11-1.58,22.25-2.87,33.43-3.94c-3.55,2.09-7.1,4.18-10.64,6.26
						c-1.46,0.85-3.2,1.61-4.52,2.66c-4.22,3.36,4.16,5.12,6.35,5.32c-13.46,1.79-27.48,1.08-40.25,6.39
						c-5.54,2.32-10.98,5.48-12.24,11.84c-1.21,6.06,2.35,11.05,7.22,14.2c5.32,3.44,11.41,4.8,17.5,6.06l19.95,4.14
						c12.65,2.62,25.12,4.82,38.08,4.96c7.84,0.09,15.67-0.1,23.49,0.49c7.76,0.58,15.48,1.67,23.19,2.68
						c29.74,3.88,59.53,7.91,88.82,14.56c2.64,0.6,5.28,1.23,7.91,1.87c0.16-0.87,0.46-1.67,0.92-2.31
						c0.31-0.44,0.64-0.85,0.97-1.26c-7.46-1.84-14.97-3.51-22.51-5.01c-27.67-5.55-55.69-9.19-83.67-12.77
						c-6.89-0.88-13.79-1.7-20.74-1.98c-7.14-0.28-14.29-0.05-21.43-0.23c-11.61-0.29-22.89-2.49-34.22-4.83
						c-6.37-1.33-12.75-2.65-19.13-3.97c-6.87-1.43-14.52-2.72-19.74-7.82c-4.91-4.8-3.04-11.38,2.42-14.68
						c6.09-3.69,13.35-5.29,20.32-6.22c6.88-0.91,13.82-1.03,20.71-1.86c7.86-0.96,15.66-2.32,23.54-3.21
						c-3.97,3.45-8.6,6.05-13.33,8.29c-2.56,1.21-5.18,2.32-7.81,3.37c-1.38,0.56-2.77,1.09-4.15,1.62
						c-1.09,0.41-3.14,0.77-3.8,1.86c-2.61,4.28,11.69,4.46,13.79,4.52c6.7,0.2,13.42-0.55,19.9-2.27c-0.23,4.4-0.2,9.22-0.13,13.68
						c-1.09-1.03-2.9-3.83-4.56-3.88c-2.05-0.07-2.05,2.08-1.93,3.54c0.12,1.44,0.08,4.52,1.37,5.55c1.27,1.03,3.3,0.13,3.21-1.6
						c1.62,1.48,4.24,3.81,6.35,1.69c1.55-1.55,1.67-4.62,2.93-6.51c0.54,1.56,1.81,4.54,3.59,5.01c2.19,0.58,2.45-1.89,3.59-3.11
						c0.45,2.73,3.61,1.58,3.88-0.57c0.17-1.35,0-2.84,0-4.2v-9.19c6.12,1.45,12.43,2.07,18.72,1.83c3.35-0.13,6.68-0.5,9.98-1.12
						c1.83-0.34,5.54-1.89,2.6-4c-2.12-1.53-5.65-2.19-8.09-3.19c-2.72-1.1-5.42-2.27-8.06-3.56c-4.72-2.31-9.34-5.02-13.2-8.63
						c4.61,1.02,9.49,0.94,14.19,1.15c2.13,0.1,14.6,0.04,12.27-4.49c8-0.46,16.05-0.05,24.07-0.02c8.47,0.04,16.95-0.1,25.41-0.49
						c16.67-0.77,33.32-2.44,49.81-4.99c3.86-0.6,7.71-1.25,11.55-1.95c2.04-0.37,10.6-0.57,9.89-3.9c-0.67-3.16-6.68-0.67-8.6-0.32
						c-4.2,0.78-8.42,1.5-12.65,2.16c-16.92,2.65-33.98,4.37-51.09,5.12c-9.16,0.41-18.33,0.5-27.5,0.42
						c-4.51-0.03-9.02-0.11-13.54-0.17c-4.37-0.05-8.7,0.43-13.06,0.42c-4.56-2.68-9.32-5.18-13.7-8.17
						c10.16,0.59,20.31-0.53,30.42-1.45c9.4-0.85,18.7-0.9,28.11-1.03c19.18-0.26,38.3-2.06,57.43-3.33
						c5.07-0.33,10.13-0.69,15.18-1.16c2.45-0.23,4.9-0.48,7.35-0.77c1.7-0.2,5.2,0.13,6.15-1.61c2.44-4.4-7.8-2.14-9.22-1.99
						c-5.02,0.54-10.05,0.95-15.08,1.31c-19.45,1.37-38.94,3.11-58.44,3.57c-10.82,0.24-21.52,0.16-32.32,1.15
						c-11.41,1.05-22.96,2.34-34.4,0.94c-1.64-2.1-2.83-4.5-4.17-6.78c3.24,0.63,6.48,1.24,9.71,1.86
						c4.63,0.89,9.53,2.19,14.24,1.18c2.12-0.46,7.62-2.87,4.06-5.34c-2.96-2.07-6.66-3.34-9.74-5.31
						c-6.22-3.97-11.88-8.85-16.58-14.54c3.71,0.79,9.06,2.01,12.76,0.72c4.59-1.6-1.7-5.32-3.3-6.49
						c-6.5-4.75-12.95-9.82-18.26-15.92c-1.4-1.61-3.1-5.23-5.54-3.07c-1.09,0.97-1.92,2.5-2.86,3.63
						c-1.36,1.65-2.78,3.26-4.24,4.81c-2.66,2.83-5.5,5.49-8.47,7.99c-1.67,1.4-9.98,5.98-7.36,8.54c1.31,1.28,4.89,0.85,6.52,0.78
						c2.44-0.11,4.87-0.49,7.27-1c-4.51,5.46-9.9,10.17-15.81,14.04c-3.11,2.04-6.37,3.7-9.66,5.41c-4.28,2.23-0.15,4.89,2.81,5.64
						c4.68,1.17,9.61-0.12,14.24-1c3.27-0.63,6.52-1.25,9.78-1.88c-2.32,3.09-4.32,5.05-7.47,7.25
						c-20.76,1.76-41.42,4.38-61.95,7.96c-10.48,1.83-20.94,3.81-31.39,5.8c-9,1.72-18.24,3.27-26.47,7.47
						c-8.31,4.24-16.28,12.54-15.81,22.53c-2.26-1.31-5.17-2.71-7.78-1.55c-1.95,0.87-3.2,4.59-0.01,4.4
						c1.39-0.09,1.64-1.07,3.21-0.7c1.92,0.46,3.77,1.9,5.44,2.9c3.59,2.13,7.13,4.38,10.35,7.05c2.9,2.41,5.38,5.29,8.37,7.59
						c3.35,2.57,7.25,3.91,11.26,5.11c8.28,2.45,16.64,4.9,25.27,5.72c8.41,0.81,16.41,0.75,24.53,3.45
						c8.17,2.71,16.21,5.23,24.6,7.21c8.77,2.07,17.53,4.18,26.27,6.33c8.57,2.11,17.62,3.63,25.68,7.25
						c8.2,3.69,17.07,5.72,24.39,11.21c6.98,5.24,11.64,13.55,20.03,16.85c-4.49,3.83-10.17,6.38-15.56,8.65
						c-6.12,2.58-12.46,4.61-18.84,6.44c-7.04,2.01-14.15,3.83-21.23,5.71c-20.49,5.43-40.99,10.54-61.76,14.78
						c-11.86,2.42-23.72,4.89-35.6,7.24c-6.97,1.38-13.95,2.68-20.97,3.76c-3.34,0.52-6.69,0.98-10.05,1.38
						c-1.76,0.21-3.52,0.4-5.29,0.57c-1.34,0.13-3.84-0.16-4.68,1.21c-1.82,2.95,2.45,2.93,3.97,2.79
						c3.94-0.36,7.86-0.82,11.78-1.37c7.1-0.98,14.18-2.22,21.22-3.57c33.68-6.46,67.16-13.67,100.3-22.46
						C522.06,574.13,541.69,570.2,558.26,560.12z M518.15,474.22c-1.18,0.57-2.25,1.4-3.11,2.4c-0.77-1.67-0.11-5.75-2.63-5.9
						c-2-0.11-4,3.14-4.91,4.59c-0.04-4.03-0.01-8.19,0.25-11.9c1.46-0.49,2.9-1.03,4.31-1.62c1.98,0.83,4.02,1.57,6.1,2.19V474.22z
						 M502.83,424.86c1.43-1.65,5.59-5.72,5.16-7.98c-0.36-1.93-2.28-1.56-3.65-1.3c-3.93,0.75-7.87,1.51-11.79,2.26
						c-4.2,0.81-8.7,2.09-12.97,1.49c7.68-4,14.76-9.21,20.7-15.51c1.39-1.47,2.71-2.99,3.97-4.58c0.9-1.15,3.2-3.3,2.86-4.95
						c-0.53-2.59-3.76-1.15-5.35-0.76c-2.72,0.66-5.48,1.22-8.28,1.4c6.64-5.2,12.51-11.04,17.52-17.41
						c5.25,6.36,12.43,12.22,19.47,17.4c-2.59-0.19-5.14-0.69-7.65-1.29c-1.63-0.38-5.26-2.05-5.81,0.66
						c-0.35,1.7,1.92,3.76,2.86,4.95c1.25,1.58,2.58,3.11,3.97,4.58c5.94,6.3,13.02,11.51,20.7,15.51
						c-6.34,0.89-14.19-1.73-20.41-2.92c-1.81-0.35-4.24-1.3-6.09-1.09c-4.03,0.45-0.4,4.83,0.57,6.46
						c1.56,2.62,2.93,5.38,4.86,7.75c0.14,0.26,0.33,0.48,0.57,0.66c5.11,5.78,13.45,9.37,20.02,13.24
						c-5.05,0.78-10.88,0.16-15.98-0.36c-1.95-0.2-3.85-0.63-5.73-1.15c-1.83-0.5-6.92-2.44-5.81,1.62c0.59,2.11,3.49,4.46,5.06,5.9
						c2.07,1.91,4.34,3.59,6.71,5.09c5.23,3.32,10.94,5.83,16.67,8.12c-6.28,0.66-12.67,0.4-18.89-0.75
						c-2.99-0.55-5.94-1.31-8.82-2.3c-1.59-0.54-3.5-1.87-5.2-1.87c-1.54,0.01-3.33,1.22-4.74,1.72c-2.87,1-5.81,1.79-8.79,2.37
						c-6.37,1.23-12.92,1.51-19.37,0.84c5.78-2.32,11.55-4.85,16.81-8.21c2.28-1.46,4.46-3.08,6.46-4.9c1.57-1.43,4.56-3.89,5.18-6
						c1.13-3.9-3.7-2.19-5.51-1.79c-2.46,0.54-4.92,0.71-7.44,0.64c-2.41-0.07-4.81-0.24-7.22-0.23c-3.4,0.02-6.84,0.52-10.22-0.01
						l12.41-7.3C494.42,432.01,499.14,429.1,502.83,424.86z M559.79,549.4c-1.11-0.6-2.16-1.31-3.15-2.09
						c-2.1-1.64-3.94-3.57-5.78-5.5c-4.06-4.26-8.11-8.19-13.29-11.09c5.96,1.58,12.07,2.9,17.9,4.88c3.88,1.32,8.72,3.45,9.77,7.87
						c0.65,2.75-0.44,5.3-2.13,7.46C562.23,550.19,560.81,549.95,559.79,549.4z"/>
				</g>
				<path style="clip-path:url(#SVGID_00000005232091921147213610000016506799101036456082_);fill:#FFFFFF;" d="M672.48,480.23"/>
			</g>
			<path class="st0" d="M568.5,760.83c0.33-1.3,0.69-2.61,1.09-3.91c0.93,1.38,1.6,3.7,2.74,4.82c1.03,1.01,2.75,1.21,3.37-0.43
				c0.9-2.4-3.26-7.43-4.76-9.13c-3.43-3.89-4.68,2.13-5.44,4.76c-0.37,1.28-1.42,3.42-0.41,4.65
				C566.08,762.81,568.1,762.35,568.5,760.83z"/>
			<path class="st0" d="M548.34,739.71c-3.9-1.61-7.32-4.27-9.89-7.61c-1.83-2.37-4.35-4.28-6.81-1.43
				c-1.54,1.79-5.16,10.06-2.87,11.89c3.42,2.74,4.68-7.5,5.75-9.21c2.41,3.17,5.06,5.91,8.48,8c1.3,0.79,3.79,2.6,5.35,1.97
				C549.93,742.68,549.93,740.36,548.34,739.71z"/>
			<path class="st0" d="M465.44,766.85c-0.14,1.61,0.8,3.76,2.8,2.58c1.33-0.79,1.27-3.1,1.5-4.46c0.76,0.99,1.31,2.71,2.61,3.07
				c1.13,0.32,2.32-0.44,2.47-1.63c0.31-2.36-3.49-5.73-5.08-7.09C466.35,756.43,465.57,765.26,465.44,766.85z"/>
		</g>
	</g>
</g>
</svg>
