<?xml version="1.0" encoding="utf-8"?>
<!-- Generator: Adobe Illustrator 28.1.0, SVG Export Plug-In . SVG Version: 6.00 Build 0)  -->
<svg version="1.1" id="Layer_1" xmlns="http://www.w3.org/2000/svg" xmlns:xlink="http://www.w3.org/1999/xlink" x="0px" y="0px"
	 viewBox="0 0 640 65" style="enable-background:new 0 0 640 65;" xml:space="preserve">
<style type="text/css">
	.st0{fill:url(#SVGID_1_);}
</style>
<linearGradient id="SVGID_1_" gradientUnits="userSpaceOnUse" x1="0.3041" y1="33.0281" x2="640.3041" y2="33.0281">
	<stop  offset="0" style="stop-color:#879FBC;stop-opacity:0.25"/>
	<stop  offset="0.5084" style="stop-color:#226192;stop-opacity:0.6313"/>
	<stop  offset="1" style="stop-color:#113D6A"/>
</linearGradient>
<path class="st0" d="M0.3,22.13c0,14.36,0,28.72,0,43.07h640V22.42c-5.3,1.76-12.65,4.11-21.47,6.62c0,0-19.9,5.67-37.73,9.22
	c-21.74,4.33-45.67,5.69-74.59,5.75c-44.95,0.1-84.2,0.18-134.79-9.49c-30.81-5.89-27.91-8.15-71.14-16.99
	c-22.18-4.54-52.41-10.72-89.28-14.11c-29.12-2.68-68.67-4.2-116.06,0.29c-12.54,1.19-20.8,1.88-28.19,2.92
	C38.61,10.62,15.75,17.05,0.3,22.13z"/>
</svg>
